<svg version="1" xmlns="http://www.w3.org/2000/svg" width="933.333" height="933.333" viewBox="0 0 700.000000 700.000000"><g><path d="M0 87.5V175h43.7V43.7H175V0H0v87.5zm262.5-65.8v21.8h175V.5L350 .2 262.5 0v21.7zm262.5.2v21.8l65.5-.1c64.8-.1 65.5-.1 65.6 1.9 0 1.1.1 30.7.1 65.7l.1 63.8H700V0H525v21.9zM113.3 133c-9.2 3.2-16.2 9.9-20.7 19.5-5.2 11.2-5 2.8-5 198v182l2.3 7.5c1.3 4.1 3.4 9.4 4.7 11.7 3.3 5.5 10.4 12 16.2 14.6l4.7 2.2H220c102.1 0 104.6 0 108.5-2 7.3-3.6 14.9-12.8 17.8-21.5 3.7-11.1 3.6-7.6 3.6-195.5v-182l-2.2-7.5c-2.8-9.2-8.5-18.1-14.6-22.5-9-6.5-4.7-6.3-114.8-6.3-94.4 0-100.1.1-105 1.8zm192.8 43.2c.1 1.6.1 338.9 0 344.5l-.1 4.3H131.3V350l-.1-175h87.4c69.2 0 87.4.3 87.5 1.2zm87.8-.5c-.1 1.1-.1 38.3 0 41.1l.1 2.2 18.8-.1h21.7l3 .1v131c0 115.8-.2 131-1.5 131-.8.1-10.6.1-21.7.1-18.4 0-20.3.2-20.4 1.7 0 .9-.1 10.7-.1 21.7l-.1 20 25.7.2c14.4.1 27.1-.3 28.9-.8 1.8-.6 3.9-1.2 4.8-1.4 6.1-1.3 14.9-7.8 20.6-15.1 2.3-3 5.8-12.2 6.8-18.4.7-3.6.8-275.3.2-278-1.6-7.1-2.3-9.1-4.4-13.7-3-6.3-10.1-13.7-16.3-16.8-9.2-4.7-14.5-5.4-41.1-5.5-13.7 0-24.9.3-25 .7zM525 240.5v22h43.5l.2 86.5c.1 47.6-.2 86.9-.7 87.5-.6.7-8.5 1-21.9 1l-21.1-.1V481l3.3.1c20.6.4 48.5-.4 53.2-1.6 16.8-4.4 27.7-16.8 30.2-34.5.4-2.5.7-45.9.7-96.5 0-73.4-.3-93.1-1.3-97.5-3.8-15.3-13.5-25.6-28.2-30-5.9-1.8-10.1-2.1-32.3-2.3l-25.6-.2v22zM.4 263.5c-.2.5-.3 39.9-.2 87.5l.3 86.5h43v-175H22.1c-13.6 0-21.5.3-21.7 1zm656.2-.5c-.5.8-.5 170.3-.1 172.5.4 2 1.2 2 22 2H700l-.2-87.5-.3-87.5h-21.3c-11.8 0-21.5.2-21.6.5zM0 612.5V700h175v-43.7h-65c-35.7 0-65.3-.3-65.7-.6-.3-.4-.6-29.9-.6-65.7v-65H0v87.5zm656.4-22c.1 64.8.1 65.5-1.9 65.6-1.1 0-30.7.1-65.7.1l-63.8.1V700h175V525h-43.7l.1 65.5zm-393.8 66.4c-.1.3-.2 10-.2 21.6l.1 21 87.5.3 87.5.2v-43.5l-87.3-.1c-48-.1-87.4.2-87.6.5z"/></g></svg>