<?xml version="1.0" encoding="utf-8"?>
<!-- Generator: Adobe Illustrator 19.2.1, SVG Export Plug-In . SVG Version: 6.00 Build 0)  -->
<svg version="1.1" id="Layer_1" xmlns="http://www.w3.org/2000/svg" xmlns:xlink="http://www.w3.org/1999/xlink" x="0px" y="0px"
	 width="16px" height="16px" viewBox="0 0 16 16" style="enable-background:new 0 0 16 16;" xml:space="preserve">
<style type="text/css">
	.st0{fill:#7A7A7A;}
	.st1{fill:#CCCCCC;}
</style>
<g>
	<path class="st0" d="M7.2,3H2.8C2.3,3,2,3.5,2,4v8c0,0.5,0.3,1,0.8,1h4.5C7.7,13,8,12.5,8,12V4C8,3.5,7.7,3,7.2,3z M7,12H3V4h4V12z
		"/>
	<path class="st0" d="M10,12H9v-1h1V5H9V4h1c0.6,0,1,0.4,1,1v6C11,11.6,10.6,12,10,12L10,12z"/>
	<path class="st0" d="M13,11h-1v-1h1V6h-1V5h1c0.6,0,1,0.4,1,1v4C14,10.6,13.6,11,13,11L13,11z"/>
</g>
<g>
	<rect x="6" class="st1" width="4" height="1"/>
	<polygon class="st1" points="15,0 12,0 12,1 15,1 15,4 16,4 16,1 16,0 	"/>
	<polygon class="st1" points="4,0 1,0 0,0 0,1 0,4 1,4 1,1 4,1 	"/>
	<polygon class="st1" points="16,15 16,12 15,12 15,15 12,15 12,16 15,16 16,16 	"/>
	<polygon class="st1" points="1,16 4,16 4,15 1,15 1,12 0,12 0,15 0,16 	"/>
	<rect x="6" y="15" class="st1" width="4" height="1"/>
	<rect x="15" y="6" class="st1" width="1" height="4"/>
	<rect x="0" y="6" class="st1" width="1" height="4"/>
</g>
</svg>
